<?xml version="1.0" encoding="UTF-8"?>
<svg xmlns="http://www.w3.org/2000/svg" xmlns:xlink="http://www.w3.org/1999/xlink" width="901px" height="261px" viewBox="0 0 676 196" version="1.1">
<g id="surface1">
<path style=" stroke:none;fill-rule:nonzero;fill:rgb(0%,0%,0%);fill-opacity:1;" d="M 601.519531 179.167969 C 594.582031 179.167969 591.109375 176.769531 591.109375 171.972656 C 591.109375 165.492188 598.050781 157.582031 611.933594 148.246094 C 616.945312 144.878906 621.957031 141.765625 626.96875 138.914062 C 632.113281 136.191406 637.1875 133.792969 642.203125 131.71875 C 642.585938 130.550781 643.035156 129.125 643.550781 127.4375 C 644.195312 125.625 644.835938 123.550781 645.480469 121.214844 C 645.734375 120.308594 646.183594 118.753906 646.828125 116.546875 C 647.601562 114.214844 648.628906 111.167969 649.914062 107.410156 C 640.273438 126.464844 630.441406 135.996094 620.414062 135.996094 C 612.191406 135.996094 608.078125 130.484375 608.078125 119.464844 C 608.078125 109.222656 611.933594 99.046875 619.644531 88.933594 C 628 78.042969 636.929688 72.597656 646.441406 72.597656 C 653.125 72.597656 656.46875 76.550781 656.46875 84.460938 C 656.46875 86.40625 656.273438 88.480469 655.890625 90.683594 C 662.445312 75.644531 668.164062 68.125 673.046875 68.125 C 674.71875 68.125 675.554688 68.902344 675.554688 70.460938 C 675.554688 71.625 674.398438 72.402344 672.085938 72.792969 C 669.128906 73.3125 666.945312 74.21875 665.527344 75.515625 C 663.472656 77.71875 661.417969 80.960938 659.359375 85.238281 C 657.304688 89.386719 655.375 94.703125 653.574219 101.1875 C 652.289062 105.984375 651.070312 110.78125 649.914062 115.578125 C 648.757812 120.242188 647.601562 124.976562 646.441406 129.773438 C 652.484375 127.699219 657.816406 124.457031 662.445312 120.050781 C 667.199219 115.511719 671.183594 109.9375 674.398438 103.324219 C 674.65625 102.9375 674.910156 102.742188 675.167969 102.742188 C 675.425781 102.742188 675.617188 102.9375 675.746094 103.324219 C 675.875 103.585938 675.8125 103.910156 675.554688 104.296875 C 673.882812 107.796875 671.570312 111.363281 668.613281 114.992188 C 665.785156 118.625 662.445312 121.929688 658.589844 124.910156 C 654.863281 127.761719 650.683594 129.835938 646.058594 131.132812 L 643.359375 142.023438 C 638.988281 160.046875 629.089844 171.648438 613.667969 176.835938 C 609.039062 178.390625 604.992188 179.167969 601.519531 179.167969 Z M 621.378906 134.441406 C 626.90625 134.441406 633.011719 129.773438 639.695312 120.4375 C 642.265625 116.9375 644.578125 113.4375 646.636719 109.9375 C 648.691406 106.308594 650.425781 102.742188 651.839844 99.242188 C 652.867188 96.519531 653.640625 93.925781 654.152344 91.460938 C 654.667969 88.867188 654.925781 86.339844 654.925781 83.878906 C 654.925781 77.65625 652.675781 74.542969 648.179688 74.542969 L 646.636719 74.542969 C 642.652344 75.320312 638.152344 79.144531 633.140625 86.015625 C 628.769531 91.59375 625.554688 96.972656 623.5 102.15625 C 621.445312 107.085938 619.835938 111.6875 618.679688 115.964844 C 617.523438 120.242188 616.945312 124.132812 616.945312 127.632812 C 616.945312 132.171875 618.421875 134.441406 621.378906 134.441406 Z M 601.136719 177.613281 C 611.03125 177.613281 622.023438 167.890625 634.105469 148.441406 C 634.875 147.144531 635.773438 145.460938 636.804688 143.386719 C 637.960938 141.441406 639.179688 139.171875 640.464844 136.578125 C 640.851562 135.929688 641.238281 134.828125 641.621094 133.273438 C 632.238281 137.550781 623.820312 142.152344 616.367188 147.082031 C 609.039062 152.136719 602.742188 157.515625 597.472656 163.222656 C 594.386719 166.464844 592.847656 169.511719 592.847656 172.363281 C 592.847656 175.863281 595.609375 177.613281 601.136719 177.613281 Z M 601.136719 177.613281 "/>
<path style=" stroke:none;fill-rule:nonzero;fill:rgb(0%,0%,0%);fill-opacity:1;" d="M 565.421875 137.359375 C 559.765625 137.359375 555.460938 134.894531 552.503906 129.96875 C 549.804688 125.820312 548.457031 120.761719 548.457031 114.800781 C 548.457031 104.554688 551.667969 95.027344 558.097656 86.210938 C 565.164062 76.617188 573.648438 71.820312 583.542969 71.820312 C 588.558594 71.820312 592.414062 73.570312 595.113281 77.070312 C 597.683594 80.441406 598.96875 84.722656 598.96875 89.90625 C 598.96875 92.238281 598.710938 94.640625 598.195312 97.101562 C 597.8125 99.566406 597.167969 102.15625 596.269531 104.882812 C 594.339844 110.585938 591.964844 115.058594 589.136719 118.300781 L 589.523438 118.882812 C 590.808594 119.789062 592.347656 120.242188 594.148438 120.242188 C 597.875 120.242188 601.023438 119.011719 603.59375 116.546875 C 606.164062 114.085938 609.058594 109.675781 612.269531 103.324219 C 612.398438 102.804688 612.65625 102.546875 613.042969 102.546875 C 613.300781 102.546875 613.492188 102.742188 613.621094 103.128906 C 613.75 103.390625 613.683594 103.777344 613.425781 104.296875 C 610.730469 110 607.835938 114.34375 604.753906 117.328125 C 601.796875 120.308594 598.324219 121.800781 594.339844 121.800781 C 591.769531 121.800781 589.777344 121.085938 588.363281 119.660156 C 587.078125 121.992188 585.664062 124.199219 584.125 126.273438 C 582.582031 128.21875 580.84375 129.96875 578.917969 131.523438 C 574.546875 135.414062 570.046875 137.359375 565.421875 137.359375 Z M 566.773438 135.800781 C 573.582031 135.800781 580.269531 130.550781 586.820312 120.050781 C 586.820312 119.660156 587.015625 119.273438 587.402344 118.882812 C 585.085938 114.992188 583.929688 111.296875 583.929688 107.796875 C 583.929688 107.667969 583.929688 107.410156 583.929688 107.019531 C 583.929688 106.5 583.996094 105.851562 584.125 105.074219 C 584.25 103.648438 584.507812 102.222656 584.894531 100.796875 C 585.28125 99.242188 585.921875 97.816406 586.820312 96.519531 C 588.75 93.40625 591.0625 91.851562 593.761719 91.851562 L 595.5 91.851562 C 596.011719 91.980469 596.398438 92.046875 596.65625 92.046875 C 596.910156 92.046875 597.105469 92.046875 597.234375 92.046875 C 597.234375 80.378906 593.570312 74.542969 586.242188 74.542969 C 580.074219 74.542969 574.226562 78.304688 568.699219 85.824219 C 564.199219 91.785156 560.988281 98.464844 559.058594 105.851562 C 557.902344 109.871094 557.324219 114.085938 557.324219 118.492188 C 557.324219 130.03125 560.472656 135.800781 566.773438 135.800781 Z M 566.773438 135.800781 "/>
<path style=" stroke:none;fill-rule:nonzero;fill:rgb(0%,0%,0%);fill-opacity:1;" d="M 511.007812 148.25 C 498.027344 148.25 484.914062 144.421875 471.675781 136.773438 C 463.578125 140.535156 455.867188 142.414062 448.542969 142.414062 C 441.472656 142.414062 434.53125 140.859375 427.71875 137.746094 C 419.492188 133.726562 415.378906 128.542969 415.378906 122.1875 C 415.378906 117.78125 417.117188 114.214844 420.585938 111.492188 C 423.800781 109.03125 427.65625 107.796875 432.152344 107.796875 C 442.949219 107.796875 452.976562 112.011719 462.230469 120.4375 C 464.542969 122.644531 466.601562 124.523438 468.398438 126.078125 C 470.199219 127.632812 471.742188 128.929688 473.027344 129.96875 C 479.195312 124.910156 485.238281 117.390625 491.148438 107.410156 C 493.589844 103.128906 495.96875 98.851562 498.28125 94.574219 C 500.597656 90.296875 502.910156 86.019531 505.222656 81.738281 C 493.914062 80.960938 483.953125 78.175781 475.339844 73.375 C 464.285156 67.285156 458.761719 59.246094 458.761719 49.261719 C 458.761719 41.484375 461.457031 34.871094 466.855469 29.425781 C 472.253906 23.980469 478.8125 21.257812 486.523438 21.257812 C 491.40625 21.257812 495.648438 22.488281 499.246094 24.953125 C 503.230469 27.933594 505.222656 31.761719 505.222656 36.425781 C 505.222656 38.242188 504.644531 39.148438 503.488281 39.148438 C 502.972656 39.148438 502.71875 38.113281 502.71875 36.039062 C 502.71875 35.777344 502.652344 35.390625 502.523438 34.871094 C 502.394531 34.351562 502.203125 33.703125 501.945312 32.925781 C 499.632812 26.316406 494.554688 23.007812 486.714844 23.007812 C 480.289062 23.007812 474.699219 25.796875 469.941406 31.371094 C 465.316406 36.816406 463 42.78125 463 49.261719 C 463 58.597656 468.140625 66.117188 478.425781 71.820312 C 486.523438 76.359375 495.839844 78.953125 506.378906 79.601562 C 510.492188 72.339844 514.671875 65.726562 518.914062 59.765625 C 523.28125 53.671875 527.652344 48.160156 532.023438 43.234375 C 545.132812 28.714844 557.019531 21.453125 567.6875 21.453125 C 571.417969 21.453125 574.566406 22.296875 577.136719 23.980469 C 580.09375 25.925781 581.570312 28.648438 581.570312 32.148438 C 581.570312 37.207031 578.613281 43.429688 572.703125 50.816406 C 570.515625 53.539062 568.136719 56.132812 565.566406 58.597656 C 562.996094 61.058594 560.234375 63.394531 557.277344 65.597656 C 554.835938 67.542969 552.265625 69.292969 549.566406 70.847656 C 546.996094 72.40625 544.296875 73.894531 541.46875 75.320312 C 535.300781 78.304688 528.292969 80.25 520.453125 81.15625 C 515.054688 93.601562 509.402344 103.585938 503.488281 111.105469 C 496.417969 120.179688 487.808594 127.632812 477.652344 133.46875 C 489.605469 142.023438 501.109375 146.304688 512.164062 146.304688 C 518.078125 146.304688 523.21875 145.136719 527.585938 142.804688 C 532.984375 139.820312 535.683594 135.605469 535.683594 130.160156 C 535.683594 129.386719 535.941406 128.996094 536.457031 128.996094 C 536.96875 128.996094 537.226562 129.449219 537.226562 130.355469 L 537.226562 130.941406 C 537.226562 136.644531 534.847656 140.921875 530.09375 143.773438 C 525.464844 146.757812 519.105469 148.25 511.007812 148.25 Z M 521.609375 78.628906 C 524.824219 78.109375 527.972656 77.460938 531.058594 76.683594 C 534.144531 75.90625 537.164062 74.933594 540.121094 73.765625 C 542.691406 72.730469 545.195312 71.496094 547.636719 70.070312 C 550.082031 68.644531 552.523438 67.023438 554.964844 65.210938 C 560.492188 61.058594 565.503906 56.132812 570.003906 50.429688 C 575.914062 43.296875 578.871094 37.207031 578.871094 32.148438 C 578.871094 28 576.75 25.925781 572.507812 25.925781 C 569.039062 25.925781 564.925781 27.15625 560.167969 29.621094 C 552.585938 33.640625 545.773438 39.34375 539.734375 46.734375 C 533.691406 54.125 528.359375 63.132812 523.730469 73.765625 Z M 446.613281 139.886719 C 454.324219 139.886719 461.265625 138.003906 467.4375 134.246094 C 464.09375 132.042969 460.753906 129.839844 457.410156 127.632812 C 454.070312 125.429688 450.726562 123.289062 447.386719 121.214844 C 437.875 115.253906 430.867188 112.269531 426.371094 112.269531 C 420.585938 112.269531 417.695312 114.929688 417.695312 120.242188 C 417.695312 125.429688 420.523438 129.96875 426.179688 133.859375 C 430.933594 137.097656 436.074219 139.042969 441.601562 139.691406 C 442.5 139.820312 443.335938 139.886719 444.105469 139.886719 C 445.007812 139.886719 445.84375 139.886719 446.613281 139.886719 Z M 446.613281 139.886719 "/>
<path style=" stroke:none;fill-rule:nonzero;fill:rgb(0%,0%,0%);fill-opacity:1;" d="M 369.527344 137.941406 C 356.546875 137.941406 350.058594 131.71875 350.058594 119.273438 C 350.058594 115.769531 350.636719 112.011719 351.792969 107.992188 L 351.792969 108.1875 C 352.433594 105.855469 353.65625 103.585938 355.457031 101.378906 C 357.640625 98.65625 359.632812 97.296875 361.433594 97.296875 C 361.433594 97.296875 361.625 97.296875 362.011719 97.296875 C 362.394531 97.296875 363.039062 97.425781 363.9375 97.683594 L 366.058594 94.378906 C 367.859375 91.65625 369.464844 88.933594 370.878906 86.210938 C 372.421875 83.359375 374.027344 80.570312 375.699219 77.847656 C 380.453125 69.550781 384.054688 65.078125 386.496094 64.429688 C 387.265625 64.171875 387.84375 64.042969 388.230469 64.042969 C 390.15625 64.042969 391.121094 64.753906 391.121094 66.179688 C 391.121094 67.867188 389.707031 68.902344 386.878906 69.292969 C 384.308594 69.679688 382.703125 70.003906 382.0625 70.265625 C 381.03125 71.042969 380.519531 72.726562 380.519531 75.320312 C 380.519531 78.042969 382.253906 82.648438 385.722656 89.128906 C 389.195312 95.480469 390.929688 101.121094 390.929688 106.046875 C 390.929688 107.34375 390.800781 108.574219 390.542969 109.742188 C 390.414062 110.910156 390.222656 112.140625 389.964844 113.4375 C 386.496094 128.085938 377.304688 135.414062 362.394531 135.414062 C 365.351562 136.0625 368.050781 136.386719 370.492188 136.386719 C 374.992188 136.386719 379.359375 135.605469 383.601562 134.050781 C 387.84375 132.367188 391.765625 130.097656 395.363281 127.246094 C 399.089844 124.261719 402.496094 120.699219 405.582031 116.550781 C 408.792969 112.269531 411.558594 107.734375 413.871094 102.9375 C 414.257812 102.15625 414.644531 101.769531 415.027344 101.769531 C 415.800781 101.769531 415.863281 102.417969 415.222656 103.714844 C 413.164062 107.601562 410.980469 111.296875 408.667969 114.800781 C 406.480469 118.171875 404.105469 121.214844 401.53125 123.9375 C 398.449219 127.050781 394.269531 130.160156 389 133.273438 C 383.730469 136.386719 377.242188 137.941406 369.527344 137.941406 Z M 361.046875 133.855469 C 367.601562 133.855469 373 128.867188 377.242188 118.882812 C 380.710938 111.105469 382.445312 103.261719 382.445312 95.351562 C 382.445312 94.3125 382.253906 92.953125 381.867188 91.269531 C 381.609375 89.453125 381.160156 87.3125 380.519531 84.851562 C 380.003906 82.515625 379.617188 80.507812 379.359375 78.820312 C 379.105469 77.007812 379.039062 75.449219 379.167969 74.15625 C 376.726562 79.082031 374.285156 83.554688 371.84375 87.574219 C 369.402344 91.59375 367.085938 95.222656 364.902344 98.464844 C 365.546875 99.5 365.867188 100.539062 365.867188 101.574219 C 365.867188 103.390625 365.160156 105.398438 363.746094 107.601562 C 362.84375 108.898438 361.304688 110.132812 359.117188 111.296875 C 356.933594 112.464844 355.390625 113.566406 354.492188 114.605469 C 353.078125 116.679688 352.371094 119.402344 352.371094 122.773438 C 352.371094 130.160156 355.261719 133.855469 361.046875 133.855469 Z M 361.046875 133.855469 "/>
<path style=" stroke:none;fill-rule:nonzero;fill:rgb(0%,0%,0%);fill-opacity:1;" d="M 342.75 70.652344 C 341.078125 70.652344 340.242188 70.265625 340.242188 69.488281 C 340.242188 69.226562 340.820312 69.03125 341.976562 68.902344 C 347.375 67.867188 351.875 65.144531 355.472656 60.734375 C 359.070312 56.199219 360.871094 51.140625 360.871094 45.566406 C 359.199219 47.902344 356.953125 49.066406 354.125 49.066406 C 352.324219 49.066406 350.910156 48.355469 349.882812 46.929688 C 348.726562 45.503906 348.148438 43.945312 348.148438 42.261719 C 348.148438 40.1875 348.984375 38.371094 350.652344 36.816406 C 352.195312 35.261719 353.996094 34.480469 356.050781 34.480469 C 358.363281 34.480469 360.226562 35.585938 361.644531 37.789062 C 362.800781 39.734375 363.378906 42 363.378906 44.59375 C 363.378906 49.652344 361.898438 54.449219 358.941406 58.984375 C 355.859375 63.78125 352.132812 67.152344 347.761719 69.097656 C 345.320312 70.136719 343.648438 70.652344 342.75 70.652344 Z M 342.75 70.652344 "/>
<path style=" stroke:none;fill-rule:nonzero;fill:rgb(0%,0%,0%);fill-opacity:1;" d="M 253.835938 142.21875 L 253.644531 141.832031 C 258.273438 131.71875 264.246094 117.714844 271.574219 99.824219 C 272.730469 96.84375 274.082031 93.148438 275.621094 88.738281 C 277.292969 84.332031 279.15625 79.210938 281.214844 73.375 L 281.597656 73.375 C 282.882812 74.414062 283.976562 74.933594 284.878906 74.933594 C 288.089844 74.933594 291.109375 72.144531 293.9375 66.570312 L 293.9375 66.765625 C 293.9375 67.023438 291.109375 73.960938 285.457031 87.574219 C 282.371094 94.964844 280.058594 100.601562 278.515625 104.492188 C 276.972656 108.382812 276.074219 110.585938 275.816406 111.105469 C 290.46875 84.527344 302.164062 71.238281 310.90625 71.238281 C 312.832031 71.238281 314.566406 71.886719 316.109375 73.183594 C 317.652344 74.480469 318.421875 76.164062 318.421875 78.238281 C 318.421875 83.683594 314.761719 92.628906 307.433594 105.074219 C 300.109375 117.523438 296.445312 126.015625 296.445312 130.550781 C 296.445312 132.238281 297.085938 133.53125 298.371094 134.441406 C 299.65625 135.347656 301.199219 135.800781 303 135.800781 C 304.800781 135.800781 306.664062 135.414062 308.589844 134.632812 C 310.519531 133.859375 312.125 133.015625 313.410156 132.105469 C 316.882812 129.382812 319.835938 126.207031 322.28125 122.578125 C 324.722656 118.949219 326.84375 115.316406 328.640625 111.6875 C 330.441406 108.058594 332.046875 105.011719 333.460938 102.546875 C 333.847656 101.898438 334.234375 101.703125 334.617188 101.964844 C 335.003906 102.09375 335.066406 102.484375 334.8125 103.128906 C 332.238281 108.574219 329.414062 114.152344 326.328125 119.855469 C 323.242188 125.558594 319.324219 130.097656 314.566406 133.46875 C 312.894531 134.632812 311.03125 135.605469 308.976562 136.386719 C 307.046875 137.164062 304.992188 137.550781 302.808594 137.550781 C 299.207031 137.550781 296.253906 136.578125 293.9375 134.632812 C 291.753906 132.691406 290.660156 129.707031 290.660156 125.6875 C 290.660156 118.6875 293.875 109.871094 300.300781 99.242188 C 306.855469 88.351562 310.132812 81.480469 310.132812 78.628906 C 310.132812 76.421875 308.914062 75.320312 306.46875 75.320312 L 305.3125 75.320312 C 302.484375 75.320312 298.628906 78.628906 293.746094 85.238281 C 288.859375 91.722656 282.949219 101.316406 276.007812 114.019531 C 274.335938 116.875 272.601562 120.179688 270.804688 123.9375 C 269.132812 127.570312 267.332031 131.652344 265.40625 136.191406 L 265.019531 136.386719 C 263.476562 135.605469 262.128906 135.21875 260.96875 135.21875 C 259.300781 135.21875 257.886719 136.253906 256.730469 138.332031 C 255.699219 140.535156 254.738281 141.832031 253.835938 142.21875 Z M 253.835938 142.21875 "/>
<path style=" stroke:none;fill-rule:nonzero;fill:rgb(0%,0%,0%);fill-opacity:1;" d="M 233.25 137.550781 C 226.949219 137.550781 222.582031 135.800781 220.140625 132.300781 C 217.695312 128.671875 216.476562 123.613281 216.476562 117.132812 C 216.476562 107.796875 220.332031 98.074219 228.042969 87.960938 C 236.269531 77.332031 244.816406 72.015625 253.683594 72.015625 C 260.238281 72.015625 263.519531 74.285156 263.519531 78.820312 C 263.519531 84.394531 260.496094 90.230469 254.457031 96.324219 C 245.84375 105.140625 236.78125 109.546875 227.273438 109.546875 C 225.730469 113.566406 224.957031 117.585938 224.957031 121.605469 C 224.957031 126.015625 225.792969 129.449219 227.464844 131.914062 C 229.136719 134.375 231.578125 135.605469 234.792969 135.605469 C 238.132812 135.605469 241.601562 134.699219 245.203125 132.886719 C 248.800781 130.941406 251.886719 128.671875 254.457031 126.078125 C 256.640625 123.875 259.082031 120.890625 261.78125 117.132812 C 264.609375 113.242188 267.4375 108.511719 270.265625 102.9375 C 270.652344 102.289062 271.035156 101.964844 271.421875 101.964844 C 272.191406 101.964844 272.191406 102.613281 271.421875 103.910156 C 269.238281 108.316406 266.859375 112.53125 264.289062 116.550781 C 261.847656 120.570312 258.570312 124.457031 254.457031 128.21875 C 252.015625 130.679688 248.929688 132.886719 245.203125 134.828125 C 241.472656 136.644531 237.492188 137.550781 233.25 137.550781 Z M 227.464844 108.1875 C 234.535156 108.1875 242.4375 104.363281 251.179688 96.710938 L 251.179688 96.519531 C 253.621094 94.445312 255.933594 91.59375 258.121094 87.960938 C 260.691406 83.941406 261.976562 80.507812 261.976562 77.65625 C 261.976562 75.582031 260.433594 74.542969 257.347656 74.542969 C 252.464844 74.542969 246.550781 78.953125 239.609375 87.765625 C 236.398438 91.65625 233.828125 95.285156 231.898438 98.65625 C 229.972656 102.027344 228.492188 105.207031 227.464844 108.1875 Z M 227.464844 108.1875 "/>
<path style=" stroke:none;fill-rule:nonzero;fill:rgb(0%,0%,0%);fill-opacity:1;" d="M 168.925781 136.578125 C 160.957031 136.578125 156.972656 131.523438 156.972656 121.410156 C 156.972656 117.261719 157.871094 112.464844 159.671875 107.019531 C 160.699219 104.296875 162.5625 100.082031 165.261719 94.378906 C 168.089844 88.675781 171.816406 81.542969 176.445312 72.988281 L 176.828125 72.988281 C 177.855469 73.636719 178.949219 73.960938 180.105469 73.960938 C 183.191406 73.960938 186.46875 72.664062 189.9375 70.070312 L 190.132812 70.460938 C 186.535156 74.089844 180.363281 84.136719 171.625 100.601562 C 166.480469 110.585938 163.910156 119.660156 163.910156 127.828125 C 163.910156 132.625 165.453125 135.023438 168.539062 135.023438 C 176.378906 135.023438 185.441406 126.53125 195.722656 109.546875 C 194.308594 107.085938 193.601562 103.261719 193.601562 98.074219 C 193.601562 96.519531 193.667969 94.964844 193.796875 93.40625 C 194.050781 91.722656 194.308594 90.035156 194.566406 88.351562 C 194.953125 85.367188 195.914062 82.191406 197.457031 78.820312 C 199.386719 74.285156 201.378906 72.015625 203.433594 72.015625 C 205.875 72.015625 207.097656 74.15625 207.097656 78.433594 C 207.097656 85.953125 203.753906 96.195312 197.074219 109.160156 C 197.328125 110.84375 198.164062 112.660156 199.578125 114.605469 C 201.121094 116.550781 202.921875 117.523438 204.976562 117.523438 C 210.503906 117.523438 215.515625 112.917969 220.015625 103.714844 C 220.402344 102.9375 220.785156 102.675781 221.171875 102.9375 C 221.6875 103.195312 221.75 103.648438 221.363281 104.296875 C 218.921875 109.09375 216.417969 112.726562 213.84375 115.1875 C 211.402344 117.652344 208.511719 118.882812 205.171875 118.882812 C 203.371094 118.882812 201.636719 118.300781 199.964844 117.132812 C 198.421875 115.835938 197.136719 113.957031 196.109375 111.492188 C 193.152344 117.714844 189.554688 123.03125 185.3125 127.441406 C 179.65625 133.53125 174.195312 136.578125 168.925781 136.578125 Z M 168.925781 136.578125 "/>
<path style=" stroke:none;fill-rule:nonzero;fill:rgb(0%,0%,0%);fill-opacity:1;" d="M 154.003906 61.707031 C 149.894531 61.707031 147.835938 59.699219 147.835938 55.679688 C 147.835938 51.273438 149.828125 49.066406 153.8125 49.066406 C 157.925781 49.066406 159.980469 51.078125 159.980469 55.097656 C 159.980469 59.503906 157.992188 61.707031 154.003906 61.707031 Z M 131.253906 137.550781 C 122.773438 137.550781 118.53125 132.820312 118.53125 123.355469 C 118.53125 116.484375 120.523438 109.222656 124.507812 101.574219 L 138.96875 72.988281 L 139.546875 72.988281 C 139.929688 73.507812 140.703125 73.765625 141.859375 73.765625 C 144.300781 73.765625 147.515625 72.273438 151.5 69.292969 L 151.882812 69.679688 L 135.496094 101.769531 C 128.683594 114.992188 125.277344 124.199219 125.277344 129.382812 C 125.277344 131.71875 125.921875 133.339844 127.207031 134.246094 C 128.492188 135.152344 129.96875 135.605469 131.640625 135.605469 C 133.441406 135.605469 135.175781 135.21875 136.847656 134.441406 C 138.644531 133.664062 140.1875 132.820312 141.472656 131.914062 C 144.945312 129.191406 147.835938 126.078125 150.148438 122.578125 C 152.589844 118.945312 154.710938 115.316406 156.511719 111.6875 C 158.3125 108.058594 159.917969 105.011719 161.332031 102.546875 C 161.71875 101.898438 162.101562 101.703125 162.488281 101.964844 C 162.875 102.09375 162.9375 102.484375 162.679688 103.128906 C 160.109375 108.574219 157.28125 114.148438 154.199219 119.855469 C 151.113281 125.558594 147.191406 130.097656 142.4375 133.46875 C 140.765625 134.632812 138.96875 135.605469 137.039062 136.386719 C 135.242188 137.164062 133.3125 137.550781 131.253906 137.550781 Z M 131.253906 137.550781 "/>
<path style=" stroke:none;fill-rule:nonzero;fill:rgb(0%,0%,0%);fill-opacity:1;" d="M 18.105469 195.308594 C 6.667969 195.308594 0.949219 191.289062 0.949219 183.253906 C 0.949219 172.882812 7.4375 163.027344 20.417969 153.691406 C 27.488281 148.765625 34.878906 144.8125 42.589844 141.832031 C 50.304688 138.847656 58.464844 136.96875 67.074219 136.191406 L 71.316406 127.828125 C 66.5625 129.644531 61.871094 131.070312 57.242188 132.105469 C 52.617188 133.015625 48.054688 133.46875 43.554688 133.46875 C 30.574219 133.46875 20.164062 129.835938 12.324219 122.578125 C 4.480469 115.058594 0.5625 104.75 0.5625 91.65625 C 0.5625 71.5625 8.660156 53.347656 24.855469 37.011719 C 17.914062 31.304688 14.441406 25.34375 14.441406 19.117188 C 14.441406 14.582031 16.242188 10.433594 19.839844 6.671875 C 23.824219 2.265625 31.472656 0.0625 42.785156 0.0625 C 49.851562 0.0625 55.574219 1.292969 59.941406 3.753906 C 60.714844 3.753906 61.097656 4.078125 61.097656 4.726562 C 61.097656 5.375 60.585938 5.699219 59.558594 5.699219 C 58.65625 5.699219 57.4375 5.441406 55.894531 4.921875 C 52.039062 3.367188 47.410156 2.589844 42.011719 2.589844 C 31.601562 2.589844 25.046875 4.664062 22.347656 8.8125 C 20.035156 12.3125 18.878906 16.007812 18.878906 19.898438 C 18.878906 25.34375 21.449219 30.398438 26.589844 35.066406 C 45.355469 16.914062 67.65625 7.839844 93.488281 7.839844 C 115.210938 7.839844 126.070312 13.027344 126.070312 23.398438 C 126.070312 25.34375 125.8125 27.285156 125.300781 29.230469 C 124.273438 32.34375 122.023438 35.324219 118.550781 38.175781 C 108.011719 46.992188 92.71875 51.402344 72.667969 51.402344 C 57.5 51.402344 44.390625 48.484375 33.335938 42.648438 C 26.523438 50.429688 21.0625 59.308594 16.949219 69.292969 C 12.066406 80.570312 9.625 90.75 9.625 99.824219 C 9.625 119.789062 20.933594 129.773438 43.554688 129.773438 C 53.964844 129.773438 63.863281 127.894531 73.246094 124.132812 C 77.359375 115.835938 80.894531 108.898438 83.847656 103.324219 C 86.804688 97.621094 89.183594 93.34375 90.980469 90.488281 C 101.007812 73.507812 108.847656 65.015625 114.503906 65.015625 C 119.003906 65.015625 121.25 67.542969 121.25 72.597656 C 121.25 79.46875 116.6875 89.0625 107.5625 101.378906 C 104.863281 105.011719 101.585938 108.574219 97.730469 112.074219 C 93.875 115.445312 89.3125 118.625 84.042969 121.605469 L 79.414062 135.996094 C 89.183594 137.035156 94.066406 139.5625 94.066406 143.582031 C 94.066406 144.488281 93.746094 144.941406 93.101562 144.941406 C 92.589844 144.941406 91.691406 144.488281 90.40625 143.582031 C 87.320312 141.117188 83.335938 139.5625 78.453125 138.914062 C 73.566406 153.433594 68.8125 163.871094 64.183594 170.222656 C 52.101562 186.949219 36.742188 195.308594 18.105469 195.308594 Z M 72.859375 49.652344 C 76.203125 49.652344 79.414062 49.519531 82.5 49.261719 C 85.714844 48.875 88.734375 48.355469 91.5625 47.707031 C 98.246094 46.410156 104.285156 44.269531 109.683594 41.289062 C 117.265625 37.140625 121.316406 32.601562 121.828125 27.675781 C 121.957031 27.285156 122.023438 26.898438 122.023438 26.507812 C 122.023438 26.121094 122.023438 25.730469 122.023438 25.34375 C 122.023438 15.359375 115.402344 10.367188 102.164062 10.367188 C 89.441406 10.367188 77.167969 13.089844 65.339844 18.535156 C 53.515625 23.851562 43.363281 31.371094 34.878906 41.09375 C 45.160156 46.796875 57.820312 49.652344 72.859375 49.652344 Z M 85.199219 117.910156 C 89.054688 115.316406 92.71875 112.464844 96.1875 109.355469 C 99.660156 106.242188 102.871094 102.804688 105.828125 99.046875 C 113.28125 89.972656 117.011719 81.675781 117.011719 74.15625 C 117.011719 70.394531 115.917969 68.515625 113.730469 68.515625 C 113.21875 68.515625 112.703125 68.644531 112.191406 68.902344 C 111.675781 69.164062 111.097656 69.488281 110.457031 69.875 C 101.714844 75.96875 93.296875 91.980469 85.199219 117.910156 Z M 16.949219 192.394531 C 27.746094 192.394531 39.507812 182.800781 52.230469 163.609375 C 53.644531 161.40625 55.445312 158.230469 57.628906 154.082031 C 59.941406 150.0625 62.578125 145.136719 65.535156 139.300781 C 48.953125 141.507812 34.621094 147.082031 22.539062 156.027344 C 10.714844 164.710938 4.804688 173.140625 4.804688 181.308594 C 4.804688 184.808594 5.960938 187.53125 8.273438 189.476562 C 10.585938 191.421875 13.480469 192.394531 16.949219 192.394531 Z M 16.949219 192.394531 "/>
</g>
</svg>
