<svg width="894" height="257" viewBox="0 0 894 257" fill="none" xmlns="http://www.w3.org/2000/svg">
<path d="M795.725 234.971C786.544 234.971 781.953 231.825 781.953 225.534C781.953 217.033 791.135 206.662 809.497 194.42C816.128 189.999 822.759 185.919 829.39 182.178C836.191 178.607 842.907 175.462 849.538 172.742C850.048 171.211 850.644 169.341 851.324 167.131C852.174 164.75 853.024 162.03 853.874 158.97C854.214 157.779 854.809 155.739 855.659 152.849C856.679 149.788 858.04 145.793 859.74 140.862C846.988 165.856 833.981 178.352 820.719 178.352C809.837 178.352 804.397 171.126 804.397 156.674C804.397 143.242 809.497 129.895 819.699 116.633C830.751 102.351 842.567 95.2101 855.149 95.2101C863.991 95.2101 868.411 100.396 868.411 110.767C868.411 113.318 868.156 116.038 867.646 118.929C876.317 99.2057 883.883 89.3442 890.344 89.3442C892.555 89.3442 893.66 90.3644 893.66 92.4047C893.66 93.9349 892.13 94.9551 889.069 95.4651C885.159 96.1452 882.268 97.3354 880.398 99.0357C877.677 101.926 874.957 106.177 872.237 111.788C869.516 117.228 866.966 124.199 864.586 132.701C862.885 138.992 861.27 145.283 859.74 151.573C858.21 157.694 856.679 163.9 855.149 170.191C863.14 167.471 870.196 163.22 876.317 157.439C882.608 151.488 887.879 144.177 892.13 135.506C892.47 134.996 892.81 134.741 893.15 134.741C893.49 134.741 893.745 134.996 893.915 135.506C894.085 135.846 894 136.271 893.66 136.781C891.45 141.372 888.389 146.048 884.479 150.808C880.738 155.569 876.317 159.905 871.217 163.815C866.286 167.556 860.76 170.276 854.639 171.976L851.069 186.259C845.288 209.892 832.196 225.109 811.793 231.91C805.672 233.951 800.316 234.971 795.725 234.971ZM821.994 176.312C829.305 176.312 837.382 170.191 846.223 157.949C849.623 153.359 852.684 148.768 855.404 144.177C858.125 139.417 860.42 134.741 862.29 130.15C863.65 126.58 864.671 123.179 865.351 119.949C866.031 116.548 866.371 113.233 866.371 110.002C866.371 101.841 863.395 97.7605 857.445 97.7605H855.404C850.133 98.7806 844.183 103.796 837.552 112.808C831.771 120.119 827.52 127.175 824.8 133.976C822.079 140.437 819.954 146.473 818.424 152.084C816.894 157.694 816.128 162.795 816.128 167.386C816.128 173.337 818.084 176.312 821.994 176.312ZM795.215 232.93C808.307 232.93 822.844 220.179 838.827 194.675C839.847 192.975 841.037 190.764 842.397 188.044C843.928 185.493 845.543 182.518 847.243 179.118C847.753 178.267 848.263 176.822 848.773 174.782C836.361 180.393 825.225 186.429 815.363 192.89C805.672 199.521 797.341 206.577 790.37 214.058C786.289 218.308 784.249 222.304 784.249 226.044C784.249 230.635 787.904 232.93 795.215 232.93Z" fill="black"/>
<path d="M747.972 180.138C740.491 180.138 734.795 176.907 730.884 170.446C727.314 165.005 725.528 158.374 725.528 150.553C725.528 137.121 729.779 124.624 738.28 113.063C747.632 100.481 758.853 94.1899 771.945 94.1899C778.576 94.1899 783.677 96.4853 787.247 101.076C790.648 105.497 792.348 111.107 792.348 117.908C792.348 120.969 792.008 124.114 791.328 127.345C790.818 130.575 789.968 133.976 788.778 137.546C786.227 145.027 783.082 150.893 779.341 155.144L779.851 155.909C781.552 157.099 783.592 157.694 785.972 157.694C790.903 157.694 795.069 156.079 798.469 152.849C801.87 149.618 805.695 143.837 809.946 135.506C810.116 134.826 810.456 134.486 810.966 134.486C811.306 134.486 811.561 134.741 811.731 135.251C811.901 135.591 811.816 136.101 811.476 136.781C807.905 144.262 804.08 149.958 799.999 153.869C796.089 157.779 791.498 159.735 786.227 159.735C782.827 159.735 780.191 158.799 778.321 156.929C776.621 159.99 774.751 162.88 772.71 165.601C770.67 168.151 768.375 170.446 765.824 172.487C760.043 177.587 754.093 180.138 747.972 180.138ZM749.757 178.097C758.768 178.097 767.61 171.211 776.281 157.439C776.281 156.929 776.536 156.419 777.046 155.909C773.985 150.808 772.455 145.963 772.455 141.372C772.455 141.202 772.455 140.862 772.455 140.352C772.455 139.672 772.54 138.822 772.71 137.801C772.88 135.931 773.22 134.061 773.73 132.191C774.241 130.15 775.091 128.28 776.281 126.58C778.831 122.499 781.892 120.459 785.462 120.459H787.758C788.438 120.629 788.948 120.714 789.288 120.714C789.628 120.714 789.883 120.714 790.053 120.714C790.053 105.412 785.207 97.7605 775.516 97.7605C767.355 97.7605 759.618 102.691 752.307 112.553C746.356 120.374 742.106 129.13 739.555 138.822C738.025 144.092 737.26 149.618 737.26 155.399C737.26 170.531 741.426 178.097 749.757 178.097Z" fill="black"/>
<path d="M675.989 194.42C658.817 194.42 641.474 189.404 623.962 179.373C613.25 184.304 603.048 186.769 593.357 186.769C584.006 186.769 574.824 184.729 565.813 180.648C554.931 175.377 549.49 168.576 549.49 160.245C549.49 154.464 551.786 149.788 556.377 146.218C560.627 142.987 565.728 141.372 571.679 141.372C585.961 141.372 599.223 146.898 611.465 157.95C614.525 160.84 617.246 163.305 619.626 165.346C622.006 167.386 624.047 169.086 625.747 170.446C633.908 163.815 641.899 153.954 649.72 140.862C652.951 135.251 656.096 129.64 659.157 124.03C662.217 118.419 665.278 112.808 668.338 107.197C653.376 106.177 640.199 102.521 628.807 96.2305C614.185 88.2393 606.874 77.6977 606.874 64.6058C606.874 54.4043 610.445 45.733 617.586 38.592C624.727 31.4509 633.398 27.8804 643.599 27.8804C650.06 27.8804 655.671 29.4956 660.432 32.7261C665.703 36.6367 668.338 41.6524 668.338 47.7733C668.338 50.1537 667.573 51.3438 666.043 51.3438C665.363 51.3438 665.023 49.9836 665.023 47.2632C665.023 46.9232 664.938 46.4131 664.768 45.733C664.598 45.0529 664.342 44.2028 664.002 43.1826C660.942 34.5113 654.226 30.1757 643.854 30.1757C635.353 30.1757 627.957 33.8312 621.666 41.1423C615.545 48.2834 612.485 56.1045 612.485 64.6058C612.485 76.8476 619.286 86.7091 632.888 94.1902C643.599 100.141 655.926 103.542 669.868 104.392C675.309 94.8703 680.835 86.199 686.446 78.3778C692.227 70.3867 698.007 63.1606 703.788 56.6996C721.131 37.6568 736.858 28.1354 750.97 28.1354C755.901 28.1354 760.067 29.2406 763.467 31.4509C767.378 34.0013 769.333 37.5718 769.333 42.1625C769.333 48.7935 765.422 56.9547 757.601 66.6461C754.711 70.2166 751.565 73.6171 748.165 76.8476C744.764 80.0781 741.109 83.1385 737.198 86.029C733.968 88.5793 730.567 90.8747 726.997 92.915C723.596 94.9553 720.026 96.9106 716.285 98.7809C708.124 102.691 698.858 105.242 688.486 106.432C681.345 122.754 673.864 135.846 666.043 145.708C656.691 157.61 645.3 167.386 631.868 175.037C647.68 186.259 662.897 191.87 677.519 191.87C685.341 191.87 692.142 190.339 697.922 187.279C705.064 183.368 708.634 177.843 708.634 170.701C708.634 169.681 708.974 169.171 709.654 169.171C710.334 169.171 710.674 169.766 710.674 170.957V171.722C710.674 179.203 707.529 184.814 701.238 188.554C695.117 192.465 686.701 194.42 675.989 194.42ZM690.016 103.116C694.267 102.436 698.433 101.586 702.513 100.566C706.594 99.546 710.589 98.2708 714.5 96.7405C717.9 95.3803 721.216 93.7651 724.446 91.8948C727.677 90.0246 730.907 87.8992 734.138 85.5189C741.449 80.0781 748.08 73.6171 754.031 66.136C761.852 56.7846 765.762 48.7935 765.762 42.1625C765.762 36.7217 762.957 34.0013 757.346 34.0013C752.756 34.0013 747.315 35.6165 741.024 38.847C730.992 44.1178 721.981 51.5989 713.99 61.2903C705.999 70.9817 698.943 82.7985 692.822 96.7405L690.016 103.116ZM590.807 183.453C601.008 183.453 610.189 180.988 618.351 176.057C613.93 173.167 609.509 170.276 605.089 167.386C600.668 164.496 596.247 161.69 591.827 158.97C579.245 151.149 569.979 147.238 564.028 147.238C556.377 147.238 552.551 150.724 552.551 157.695C552.551 164.496 556.292 170.446 563.773 175.547C570.064 179.798 576.865 182.348 584.176 183.198C585.366 183.368 586.471 183.453 587.491 183.453C588.681 183.453 589.786 183.453 590.807 183.453Z" fill="black"/>
<path d="M488.835 180.903C471.663 180.903 463.077 172.741 463.077 156.419C463.077 151.828 463.842 146.898 465.372 141.627V141.882C466.222 138.821 467.837 135.846 470.218 132.956C473.108 129.385 475.744 127.6 478.124 127.6C478.124 127.6 478.379 127.6 478.889 127.6C479.399 127.6 480.249 127.77 481.439 128.11L484.245 123.774C486.625 120.204 488.75 116.633 490.621 113.063C492.661 109.322 494.786 105.667 496.997 102.096C503.288 91.2144 508.048 85.3485 511.279 84.4984C512.299 84.1583 513.064 83.9883 513.574 83.9883C516.124 83.9883 517.4 84.9234 517.4 86.7937C517.4 89.004 515.529 90.3642 511.789 90.8743C508.388 91.3844 506.263 91.8095 505.413 92.1495C504.053 93.1697 503.373 95.38 503.373 98.7805C503.373 102.351 505.668 108.387 510.259 116.888C514.849 125.219 517.145 132.615 517.145 139.076C517.145 140.777 516.975 142.392 516.635 143.922C516.465 145.452 516.209 147.068 515.869 148.768C511.279 167.981 499.122 177.587 479.399 177.587C483.31 178.437 486.88 178.862 490.111 178.862C496.062 178.862 501.842 177.842 507.453 175.802C513.064 173.592 518.25 170.616 523.011 166.876C527.941 162.965 532.447 158.289 536.528 152.848C540.778 147.238 544.434 141.287 547.494 134.996C548.004 133.976 548.514 133.466 549.024 133.466C550.045 133.466 550.13 134.316 549.279 136.016C546.559 141.117 543.669 145.962 540.608 150.553C537.718 154.974 534.572 158.969 531.172 162.54C527.091 166.621 521.565 170.701 514.594 174.782C507.623 178.862 499.037 180.903 488.835 180.903ZM477.614 175.547C486.285 175.547 493.426 169.001 499.037 155.909C503.628 145.707 505.923 135.421 505.923 125.049C505.923 123.689 505.668 121.904 505.158 119.694C504.818 117.313 504.223 114.508 503.373 111.277C502.693 108.217 502.182 105.581 501.842 103.371C501.502 100.991 501.417 98.9505 501.587 97.2503C498.357 103.711 495.126 109.577 491.896 114.848C488.665 120.119 485.605 124.879 482.715 129.13C483.565 130.49 483.99 131.85 483.99 133.211C483.99 135.591 483.055 138.226 481.184 141.117C479.994 142.817 477.954 144.432 475.063 145.962C472.173 147.493 470.133 148.938 468.943 150.298C467.072 153.019 466.137 156.589 466.137 161.01C466.137 170.701 469.963 175.547 477.614 175.547Z" fill="black"/>
<path d="M453.409 92.6597C451.199 92.6597 450.094 92.1496 450.094 91.1294C450.094 90.7894 450.859 90.5344 452.389 90.3643C459.53 89.0041 465.481 85.4336 470.242 79.6528C475.002 73.7019 477.383 67.0709 477.383 59.7598C475.172 62.8203 472.197 64.3505 468.456 64.3505C466.076 64.3505 464.206 63.4154 462.845 61.5451C461.315 59.6748 460.55 57.6345 460.55 55.4242C460.55 52.7038 461.655 50.3234 463.866 48.2831C465.906 46.2428 468.286 45.2227 471.007 45.2227C474.067 45.2227 476.532 46.6679 478.403 49.5583C479.933 52.1087 480.698 55.0841 480.698 58.4846C480.698 65.1156 478.743 71.4065 474.832 77.3574C470.752 83.6483 465.821 88.069 460.04 90.6194C456.81 91.9796 454.599 92.6597 453.409 92.6597Z" fill="black"/>
<path d="M335.793 186.514L335.538 186.004C341.659 172.742 349.565 154.379 359.256 130.916C360.787 127.005 362.572 122.159 364.612 116.379C366.822 110.598 369.288 103.882 372.008 96.2305H372.518C374.219 97.5907 375.664 98.2708 376.854 98.2708C381.105 98.2708 385.1 94.6153 388.841 87.3042V87.5592C388.841 87.8993 385.1 96.9956 377.619 114.848C373.538 124.54 370.478 131.936 368.438 137.037C366.397 142.137 365.207 145.028 364.867 145.708C384.25 110.853 399.722 93.4251 411.284 93.4251C413.834 93.4251 416.13 94.2752 418.17 95.9755C420.21 97.6757 421.231 99.8861 421.231 102.606C421.231 109.748 416.385 121.479 406.693 137.802C397.002 154.124 392.156 165.261 392.156 171.212C392.156 173.422 393.006 175.122 394.707 176.312C396.407 177.503 398.447 178.098 400.828 178.098C403.208 178.098 405.673 177.588 408.224 176.567C410.774 175.547 412.899 174.442 414.6 173.252C419.19 169.681 423.101 165.516 426.331 160.755C429.562 155.994 432.367 151.234 434.748 146.473C437.128 141.712 439.253 137.717 441.123 134.486C441.634 133.636 442.144 133.381 442.654 133.721C443.164 133.891 443.249 134.401 442.909 135.251C439.508 142.392 435.768 149.703 431.687 157.185C427.606 164.666 422.421 170.617 416.13 175.037C413.919 176.567 411.454 177.843 408.734 178.863C406.183 179.883 403.463 180.393 400.572 180.393C395.812 180.393 391.901 179.118 388.841 176.567C385.95 174.017 384.505 170.106 384.505 164.836C384.505 155.654 388.756 144.093 397.257 130.151C405.928 115.868 410.264 106.857 410.264 103.117C410.264 100.226 408.649 98.7809 405.418 98.7809H403.888C400.147 98.7809 395.047 103.117 388.586 111.788C382.125 120.289 374.304 132.871 365.122 149.533C362.912 153.274 360.617 157.61 358.236 162.54C356.026 167.301 353.646 172.657 351.095 178.608L350.585 178.863C348.545 177.843 346.76 177.333 345.229 177.333C343.019 177.333 341.149 178.693 339.618 181.413C338.258 184.304 336.983 186.004 335.793 186.514Z" fill="black"/>
<path d="M308.558 180.393C300.226 180.393 294.446 178.098 291.215 173.507C287.985 168.746 286.369 162.115 286.369 153.614C286.369 141.372 291.47 128.62 301.672 115.358C312.553 101.416 323.86 94.4453 335.592 94.4453C344.263 94.4453 348.599 97.4208 348.599 103.372C348.599 110.683 344.603 118.334 336.612 126.325C325.22 137.887 313.233 143.668 300.652 143.668C298.611 148.938 297.591 154.209 297.591 159.48C297.591 165.261 298.696 169.766 300.907 172.997C303.117 176.227 306.347 177.843 310.598 177.843C315.019 177.843 319.609 176.652 324.37 174.272C329.131 171.722 333.211 168.746 336.612 165.346C339.502 162.455 342.733 158.545 346.303 153.614C350.044 148.513 353.784 142.307 357.525 134.996C358.035 134.146 358.545 133.721 359.055 133.721C360.075 133.721 360.075 134.571 359.055 136.272C356.165 142.052 353.019 147.578 349.619 152.849C346.388 158.12 342.053 163.22 336.612 168.151C333.381 171.382 329.301 174.272 324.37 176.823C319.439 179.203 314.169 180.393 308.558 180.393ZM300.907 141.882C310.258 141.882 320.714 136.867 332.276 126.835V126.58C335.507 123.86 338.567 120.119 341.458 115.358C344.858 110.088 346.558 105.582 346.558 101.841C346.558 99.121 344.518 97.7608 340.437 97.7608C333.976 97.7608 326.155 103.542 316.974 115.103C312.723 120.204 309.323 124.965 306.772 129.385C304.222 133.806 302.267 137.972 300.907 141.882Z" fill="black"/>
<path d="M223.467 179.118C212.925 179.118 207.654 172.487 207.654 159.225C207.654 153.784 208.844 147.493 211.225 140.352C212.585 136.782 215.05 131.256 218.621 123.775C222.361 116.294 227.292 106.942 233.413 95.7206H233.923C235.283 96.5707 236.729 96.9958 238.259 96.9958C242.339 96.9958 246.675 95.2955 251.266 91.895L251.521 92.4051C246.76 97.1658 238.599 110.343 227.037 131.936C220.236 145.028 216.836 156.93 216.836 167.641C216.836 173.932 218.876 177.078 222.957 177.078C233.328 177.078 245.315 165.941 258.917 143.668C257.047 140.437 256.111 135.421 256.111 128.62C256.111 126.58 256.196 124.54 256.367 122.5C256.707 120.289 257.047 118.079 257.387 115.869C257.897 111.958 259.172 107.792 261.212 103.372C263.763 97.4208 266.398 94.4454 269.118 94.4454C272.349 94.4454 273.964 97.2508 273.964 102.862C273.964 112.723 269.543 126.155 260.702 143.158C261.042 145.368 262.147 147.748 264.018 150.299C266.058 152.849 268.438 154.124 271.159 154.124C278.47 154.124 285.101 148.088 291.052 136.017C291.562 134.996 292.072 134.656 292.582 134.996C293.262 135.336 293.347 135.932 292.837 136.782C289.606 143.073 286.291 147.833 282.89 151.064C279.66 154.294 275.834 155.909 271.414 155.909C269.033 155.909 266.738 155.144 264.528 153.614C262.487 151.914 260.787 149.449 259.427 146.218C255.516 154.379 250.756 161.35 245.145 167.131C237.664 175.122 230.438 179.118 223.467 179.118Z" fill="black"/>
<path d="M203.731 80.928C198.29 80.928 195.57 78.2926 195.57 73.0219C195.57 67.241 198.205 64.3506 203.476 64.3506C208.917 64.3506 211.637 66.986 211.637 72.2567C211.637 78.0376 209.002 80.928 203.731 80.928ZM173.637 180.393C162.415 180.393 156.804 174.187 156.804 161.775C156.804 152.764 159.44 143.242 164.71 133.211L183.838 95.7202H184.603C185.113 96.4003 186.134 96.7404 187.664 96.7404C190.894 96.7404 195.145 94.7851 200.416 90.8745L200.926 91.3846L179.248 133.466C170.236 150.808 165.731 162.88 165.731 169.681C165.731 172.742 166.581 174.867 168.281 176.057C169.981 177.247 171.936 177.842 174.147 177.842C176.527 177.842 178.822 177.332 181.033 176.312C183.413 175.292 185.453 174.187 187.154 172.997C191.744 169.426 195.57 165.346 198.63 160.755C201.861 155.994 204.666 151.233 207.047 146.473C209.427 141.712 211.552 137.716 213.423 134.486C213.933 133.636 214.443 133.381 214.953 133.721C215.463 133.891 215.548 134.401 215.208 135.251C211.807 142.392 208.067 149.703 203.986 157.184C199.906 164.665 194.72 170.616 188.429 175.037C186.219 176.567 183.838 177.842 181.288 178.863C178.907 179.883 176.357 180.393 173.637 180.393Z" fill="black"/>
<path d="M23.9575 256.139C8.82521 256.139 1.2591 250.868 1.2591 240.327C1.2591 226.725 9.84537 213.803 27.0179 201.561C36.3693 195.1 46.1457 189.914 56.3472 186.004C66.5488 182.093 77.3453 179.628 88.737 178.607L94.3479 167.641C88.0569 170.021 81.851 171.891 75.7301 173.252C69.6092 174.442 63.5733 175.037 57.6224 175.037C40.4499 175.037 26.6779 170.276 16.3063 160.755C5.93479 150.893 0.749023 137.376 0.749023 120.204C0.749023 93.8499 11.4606 69.9614 32.8838 48.5382C23.7024 41.0571 19.1117 33.236 19.1117 25.0748C19.1117 19.1239 21.4921 13.6831 26.2528 8.75233C31.5236 2.97148 41.6401 0.0810547 56.6023 0.0810547C65.9537 0.0810547 73.5198 1.69629 79.3006 4.92677C80.3208 4.92677 80.8309 5.35183 80.8309 6.20196C80.8309 7.05208 80.1508 7.47714 78.7906 7.47714C77.6004 7.47714 75.9852 7.13709 73.9449 6.45699C68.8441 4.4167 62.7232 3.39655 55.5821 3.39655C41.8101 3.39655 33.1388 6.11695 29.5683 11.5578C26.5078 16.1484 24.9776 20.9942 24.9776 26.0949C24.9776 33.236 28.3781 39.8669 35.1791 45.9879C60.0028 22.1843 89.5021 10.2826 123.677 10.2826C152.411 10.2826 166.779 17.0836 166.779 30.6856C166.779 33.236 166.439 35.7863 165.758 38.3367C164.398 42.4173 161.423 46.3279 156.832 50.0684C142.89 61.6302 122.657 67.411 96.1331 67.411C76.0702 67.411 58.7276 63.5855 44.1054 55.9343C35.0941 66.1358 27.868 77.7825 22.4272 90.8745C15.9663 105.667 12.7358 119.014 12.7358 130.915C12.7358 157.099 27.698 170.191 57.6224 170.191C71.3945 170.191 84.4864 167.726 96.8982 162.795C102.339 151.914 107.015 142.817 110.925 135.506C114.836 128.025 117.981 122.414 120.362 118.674C133.624 96.4003 143.995 85.2637 151.476 85.2637C157.427 85.2637 160.403 88.5791 160.403 95.2101C160.403 104.221 154.367 116.803 142.295 132.956C138.724 137.716 134.389 142.392 129.288 146.983C124.187 151.403 118.151 155.569 111.18 159.48L105.059 178.352C117.981 179.713 124.442 183.028 124.442 188.299C124.442 189.489 124.017 190.084 123.167 190.084C122.487 190.084 121.297 189.489 119.597 188.299C115.516 185.068 110.245 183.028 103.784 182.178C97.3233 201.221 91.0324 214.908 84.9115 223.239C68.9291 245.172 48.6111 256.139 23.9575 256.139ZM96.3882 65.1157C100.809 65.1157 105.059 64.9456 109.14 64.6056C113.391 64.0955 117.386 63.4154 121.127 62.5653C129.968 60.865 137.959 58.0596 145.1 54.1491C155.132 48.7083 160.488 42.7574 161.168 36.2964C161.338 35.7863 161.423 35.2763 161.423 34.7662C161.423 34.2561 161.423 33.746 161.423 33.236C161.423 20.144 152.667 13.598 135.154 13.598C118.321 13.598 102.084 17.1686 86.4417 24.3096C70.7994 31.2807 57.3674 41.1421 46.1457 53.894C59.7478 61.3751 76.4952 65.1157 96.3882 65.1157ZM112.711 154.634C117.811 151.233 122.657 147.493 127.248 143.412C131.838 139.332 136.089 134.826 140 129.895C149.861 117.994 154.792 107.112 154.792 97.2504C154.792 92.3197 153.347 89.8543 150.456 89.8543C149.776 89.8543 149.096 90.0244 148.416 90.3644C147.736 90.7045 146.971 91.1295 146.121 91.6396C134.559 99.6308 123.422 120.629 112.711 154.634ZM22.4272 252.313C36.7093 252.313 52.2666 239.732 69.0991 214.568C70.9694 211.677 73.3498 207.512 76.2402 202.071C79.3006 196.8 82.7862 190.339 86.6967 182.688C64.7635 185.579 45.8057 192.89 29.8233 204.621C14.181 216.013 6.35985 227.065 6.35985 237.776C6.35985 242.367 7.89008 245.937 10.9505 248.488C14.011 251.038 17.8366 252.313 22.4272 252.313Z" fill="black"/>
</svg>
