<svg width="901" height="261" viewBox="0 0 901 261" fill="none" xmlns="http://www.w3.org/2000/svg">
<path d="M801.732 238.587C792.481 238.587 787.856 235.393 787.856 229.005C787.856 220.373 797.107 209.842 815.608 197.411C822.289 192.923 828.97 188.779 835.651 184.981C842.504 181.356 849.27 178.162 855.952 175.4C856.465 173.846 857.065 171.947 857.75 169.702C858.607 167.285 859.463 164.523 860.32 161.415C860.663 160.207 861.262 158.135 862.119 155.2C863.147 152.093 864.517 148.036 866.23 143.029C853.382 168.407 840.277 181.097 826.915 181.097C815.951 181.097 810.469 173.759 810.469 159.085C810.469 145.446 815.608 131.894 825.887 118.427C837.022 103.925 848.928 96.6744 861.605 96.6744C870.513 96.6744 874.967 101.94 874.967 112.471C874.967 115.061 874.71 117.823 874.196 120.758C882.933 100.732 890.556 90.7183 897.066 90.7183C899.293 90.7183 900.406 91.7541 900.406 93.8258C900.406 95.3796 898.865 96.4155 895.781 96.9334C891.841 97.624 888.929 98.8325 887.044 100.559C884.303 103.494 881.562 107.81 878.821 113.507C876.081 119.032 873.511 126.11 871.112 134.742C869.399 141.13 867.772 147.518 866.23 153.906C864.688 160.121 863.147 166.422 861.605 172.81C869.656 170.048 876.766 165.732 882.933 159.862C889.271 153.819 894.582 146.396 898.865 137.591C899.207 137.073 899.55 136.814 899.893 136.814C900.235 136.814 900.492 137.073 900.664 137.591C900.835 137.936 900.749 138.368 900.406 138.886C898.179 143.547 895.096 148.295 891.156 153.129C887.387 157.963 882.933 162.365 877.794 166.336C872.826 170.134 867.258 172.896 861.091 174.623L857.493 189.125C851.669 213.122 838.478 228.574 817.921 235.479C811.754 237.551 806.357 238.587 801.732 238.587ZM828.199 179.025C835.566 179.025 843.703 172.81 852.611 160.38C856.037 155.718 859.121 151.057 861.862 146.396C864.603 141.562 866.915 136.814 868.8 132.153C870.17 128.527 871.198 125.074 871.883 121.794C872.569 118.341 872.911 114.975 872.911 111.694C872.911 103.408 869.913 99.2641 863.918 99.2641H861.862C856.551 100.3 850.555 105.393 843.874 114.543C838.05 121.967 833.767 129.131 831.026 136.037C828.285 142.597 826.144 148.726 824.602 154.423C823.06 160.121 822.289 165.3 822.289 169.961C822.289 176.004 824.259 179.025 828.199 179.025ZM801.218 236.515C814.409 236.515 829.056 223.567 845.159 197.67C846.187 195.944 847.386 193.7 848.757 190.937C850.298 188.348 851.926 185.327 853.639 181.874C854.153 181.01 854.667 179.543 855.181 177.471C842.675 183.168 831.454 189.297 821.518 195.858C811.754 202.591 803.359 209.755 796.336 217.352C792.224 221.668 790.169 225.725 790.169 229.523C790.169 234.184 793.852 236.515 801.218 236.515Z" fill="black"/>
<path d="M753.617 182.91C746.08 182.91 740.341 179.629 736.401 173.069C732.803 167.544 731.004 160.811 731.004 152.87C731.004 139.231 735.287 126.542 743.853 114.802C753.275 102.026 764.581 95.6387 777.772 95.6387C784.453 95.6387 789.592 97.9693 793.19 102.631C796.616 107.119 798.329 112.817 798.329 119.722C798.329 122.83 797.987 126.024 797.301 129.304C796.787 132.584 795.931 136.037 794.732 139.663C792.162 147.259 788.993 153.215 785.224 157.531L785.738 158.308C787.451 159.516 789.507 160.121 791.905 160.121C796.873 160.121 801.07 158.481 804.496 155.2C807.922 151.92 811.777 146.05 816.06 137.591C816.231 136.9 816.574 136.555 817.088 136.555C817.43 136.555 817.687 136.814 817.858 137.332C818.03 137.677 817.944 138.195 817.601 138.886C814.004 146.482 810.149 152.265 806.038 156.236C802.098 160.207 797.473 162.192 792.162 162.192C788.736 162.192 786.08 161.243 784.196 159.344C782.483 162.451 780.599 165.386 778.543 168.149C776.487 170.738 774.174 173.069 771.605 175.141C765.78 180.32 759.784 182.91 753.617 182.91ZM755.416 180.838C764.495 180.838 773.404 173.846 782.14 159.862C782.14 159.344 782.397 158.826 782.911 158.308C779.828 153.129 778.286 148.208 778.286 143.547C778.286 143.374 778.286 143.029 778.286 142.511C778.286 141.821 778.372 140.957 778.543 139.922C778.714 138.022 779.057 136.123 779.571 134.224C780.085 132.153 780.941 130.254 782.14 128.527C784.71 124.384 787.794 122.312 791.391 122.312H793.704C794.389 122.485 794.903 122.571 795.246 122.571C795.588 122.571 795.845 122.571 796.016 122.571C796.016 107.033 791.134 99.2642 781.369 99.2642C773.147 99.2642 765.352 104.271 757.986 114.284C751.99 122.226 747.707 131.117 745.137 140.957C743.596 146.309 742.825 151.92 742.825 157.79C742.825 173.155 747.022 180.838 755.416 180.838Z" fill="black"/>
<path d="M681.091 197.412C663.789 197.412 646.315 192.319 628.67 182.133C617.878 187.14 607.599 189.643 597.834 189.643C588.412 189.643 579.162 187.572 570.082 183.428C559.118 178.076 553.636 171.17 553.636 162.711C553.636 156.841 555.949 152.093 560.575 148.468C564.857 145.188 569.997 143.548 575.992 143.548C590.382 143.548 603.745 149.159 616.079 160.38C619.163 163.315 621.903 165.819 624.302 167.89C626.7 169.962 628.756 171.688 630.469 173.07C638.692 166.336 646.743 156.323 654.624 143.03C657.879 137.332 661.048 131.635 664.131 125.938C667.215 120.241 670.298 114.544 673.382 108.846C658.307 107.811 645.03 104.099 633.553 97.711C618.82 89.5968 611.454 78.8929 611.454 65.5994C611.454 55.2409 615.051 46.4361 622.246 39.1851C629.441 31.9341 638.178 28.3086 648.456 28.3086C654.966 28.3086 660.619 29.9487 665.416 33.2289C670.727 37.1997 673.382 42.2927 673.382 48.5078C673.382 50.9248 672.611 52.1333 671.069 52.1333C670.384 52.1333 670.042 50.7521 670.042 47.9899C670.042 47.6446 669.956 47.1266 669.785 46.4361C669.613 45.7455 669.356 44.8823 669.014 43.8464C665.93 35.0416 659.163 30.6393 648.713 30.6393C640.148 30.6393 632.696 34.3511 626.357 41.7747C620.19 49.0257 617.107 56.9673 617.107 65.5994C617.107 78.0297 623.959 88.043 637.664 95.6393C648.456 101.682 660.876 105.135 674.924 105.998C680.406 96.3298 685.973 87.5251 691.627 79.5835C697.451 71.4693 703.276 64.132 709.1 57.5715C726.574 38.2355 742.42 28.5676 756.639 28.5676C761.607 28.5676 765.804 29.6897 769.23 31.9341C773.17 34.5237 775.14 38.1492 775.14 42.8106C775.14 49.5436 771.2 57.8305 763.32 67.6711C760.407 71.2966 757.238 74.7495 753.812 78.0297C750.386 81.3099 746.703 84.4175 742.763 87.3524C739.508 89.942 736.081 92.2727 732.484 94.3444C729.058 96.4162 725.46 98.4015 721.691 100.301C713.469 104.271 704.132 106.861 693.682 108.07C686.487 124.643 678.95 137.937 671.069 147.95C661.647 160.035 650.17 169.962 636.636 177.731C652.568 189.125 667.9 194.823 682.633 194.823C690.513 194.823 697.365 193.269 703.19 190.161C710.385 186.19 713.982 180.579 713.982 173.328C713.982 172.293 714.325 171.775 715.01 171.775C715.696 171.775 716.038 172.379 716.038 173.587V174.364C716.038 181.961 712.869 187.658 706.53 191.456C700.363 195.427 691.884 197.412 681.091 197.412ZM695.224 104.703C699.507 104.012 703.704 103.149 707.815 102.113C711.927 101.078 715.953 99.7827 719.893 98.2289C723.319 96.8478 726.659 95.2077 729.914 93.3086C733.169 91.4095 736.424 89.2515 739.679 86.8345C747.045 81.3099 753.726 74.7495 759.722 67.1532C767.602 57.6579 771.543 49.5436 771.543 42.8106C771.543 37.286 768.716 34.5237 763.063 34.5237C758.437 34.5237 752.955 36.1638 746.617 39.444C736.51 44.796 727.43 52.3923 719.379 62.2329C711.327 72.0735 704.218 84.0722 698.051 98.2289L695.224 104.703ZM595.265 186.277C605.543 186.277 614.794 183.773 623.017 178.767C618.563 175.832 614.109 172.897 609.655 169.962C605.201 167.027 600.747 164.178 596.293 161.416C583.616 153.475 574.279 149.504 568.284 149.504C560.575 149.504 556.72 153.043 556.72 160.121C556.72 167.027 560.489 173.07 568.027 178.249C574.365 182.565 581.217 185.155 588.584 186.018C589.783 186.19 590.896 186.277 591.924 186.277C593.123 186.277 594.237 186.277 595.265 186.277Z" fill="black"/>
<path d="M492.523 183.687C475.221 183.687 466.57 175.4 466.57 158.826C466.57 154.165 467.341 149.158 468.882 143.806V144.065C469.739 140.958 471.366 137.936 473.765 135.001C476.677 131.376 479.332 129.563 481.731 129.563C481.731 129.563 481.988 129.563 482.502 129.563C483.016 129.563 483.872 129.736 485.071 130.081L487.898 125.679C490.296 122.053 492.438 118.428 494.322 114.802C496.378 111.004 498.519 107.292 500.746 103.667C507.085 92.6176 511.881 86.6614 515.136 85.7982C516.164 85.4529 516.935 85.2803 517.449 85.2803C520.018 85.2803 521.303 86.2298 521.303 88.1289C521.303 90.3732 519.419 91.7544 515.65 92.2723C512.224 92.7902 510.082 93.2219 509.226 93.5671C507.855 94.603 507.17 96.8474 507.17 100.3C507.17 103.926 509.483 110.055 514.108 118.687C518.734 127.146 521.046 134.656 521.046 141.217C521.046 142.943 520.875 144.583 520.532 146.137C520.361 147.691 520.104 149.331 519.761 151.057C515.136 170.566 502.888 180.32 483.016 180.32C486.956 181.183 490.553 181.615 493.808 181.615C499.804 181.615 505.628 180.579 511.282 178.507C516.935 176.263 522.16 173.242 526.957 169.444C531.924 165.473 536.464 160.725 540.576 155.201C544.858 149.503 548.542 143.461 551.625 137.073C552.139 136.037 552.653 135.519 553.167 135.519C554.195 135.519 554.28 136.383 553.424 138.109C550.683 143.288 547.771 148.209 544.687 152.87C541.775 157.359 538.606 161.416 535.179 165.041C531.068 169.185 525.5 173.328 518.477 177.472C511.453 181.615 502.802 183.687 492.523 183.687ZM481.217 178.248C489.954 178.248 497.149 171.602 502.802 158.308C507.427 147.95 509.74 137.505 509.74 126.974C509.74 125.592 509.483 123.78 508.969 121.535C508.626 119.118 508.027 116.27 507.17 112.989C506.485 109.882 505.971 107.206 505.628 104.962C505.286 102.545 505.2 100.473 505.371 98.7464C502.117 105.307 498.862 111.263 495.607 116.615C492.352 121.967 489.268 126.801 486.356 131.117C487.213 132.498 487.641 133.879 487.641 135.26C487.641 137.677 486.699 140.353 484.814 143.288C483.615 145.015 481.559 146.655 478.647 148.209C475.735 149.762 473.679 151.23 472.48 152.611C470.596 155.373 469.653 158.999 469.653 163.487C469.653 173.328 473.508 178.248 481.217 178.248Z" fill="black"/>
<path d="M456.829 94.0848C454.602 94.0848 453.489 93.5669 453.489 92.531C453.489 92.1857 454.259 91.9268 455.801 91.7541C462.996 90.373 468.992 86.7475 473.789 80.8776C478.585 74.8351 480.984 68.1021 480.984 60.6784C478.757 63.786 475.759 65.3398 471.99 65.3398C469.592 65.3398 467.707 64.3903 466.337 62.4912C464.795 60.5921 464.024 58.5204 464.024 56.276C464.024 53.5138 465.138 51.0968 467.365 49.0251C469.42 46.9533 471.819 45.9175 474.56 45.9175C477.643 45.9175 480.127 47.3849 482.012 50.3199C483.553 52.9095 484.324 55.9308 484.324 59.3836C484.324 66.1167 482.354 72.5045 478.414 78.547C474.303 84.9347 469.335 89.4235 463.51 92.0131C460.255 93.3942 458.028 94.0848 456.829 94.0848Z" fill="black"/>
<path d="M338.324 189.384L338.067 188.866C344.235 175.4 352.2 156.755 361.965 132.93C363.507 128.959 365.306 124.039 367.361 118.169C369.588 112.299 372.072 105.48 374.813 97.7107H375.327C377.04 99.0919 378.497 99.7824 379.696 99.7824C383.978 99.7824 388.004 96.0706 391.773 88.647V88.9059C391.773 89.2512 388.004 98.4876 380.467 116.615C376.355 126.456 373.272 133.966 371.216 139.145C369.16 144.324 367.961 147.259 367.618 147.95C387.148 112.558 402.737 94.8621 414.386 94.8621C416.956 94.8621 419.268 95.7253 421.324 97.4518C423.38 99.1782 424.407 101.423 424.407 104.185C424.407 111.436 419.525 123.348 409.761 139.922C399.996 156.496 395.114 167.804 395.114 173.846C395.114 176.091 395.97 177.817 397.683 179.025C399.396 180.234 401.452 180.838 403.85 180.838C406.249 180.838 408.733 180.32 411.302 179.284C413.872 178.249 416.013 177.126 417.726 175.918C422.352 172.292 426.292 168.063 429.547 163.229C432.802 158.395 435.628 153.561 438.027 148.727C440.425 143.893 442.566 139.836 444.451 136.555C444.965 135.692 445.479 135.433 445.993 135.778C446.507 135.951 446.592 136.469 446.25 137.332C442.823 144.583 439.054 152.007 434.943 159.603C430.832 167.199 425.607 173.242 419.268 177.731C417.041 179.284 414.557 180.579 411.816 181.615C409.247 182.651 406.506 183.169 403.593 183.169C398.797 183.169 394.857 181.874 391.773 179.284C388.861 176.695 387.405 172.724 387.405 167.372C387.405 158.049 391.687 146.31 400.253 132.153C408.99 117.651 413.358 108.501 413.358 104.703C413.358 101.768 411.731 100.3 408.476 100.3H406.934C403.165 100.3 398.026 104.703 391.516 113.508C385.006 122.14 377.126 134.915 367.875 151.834C365.648 155.632 363.336 160.035 360.937 165.041C358.71 169.875 356.312 175.314 353.742 181.356L353.228 181.615C351.173 180.579 349.374 180.061 347.832 180.061C345.605 180.061 343.721 181.442 342.179 184.205C340.808 187.14 339.524 188.866 338.324 189.384Z" fill="black"/>
<path d="M310.883 183.169C302.489 183.169 296.665 180.838 293.41 176.177C290.155 171.343 288.527 164.61 288.527 155.978C288.527 143.547 293.667 130.599 303.945 117.133C314.909 102.976 326.301 95.8979 338.122 95.8979C346.858 95.8979 351.227 98.9192 351.227 104.962C351.227 112.385 347.201 120.154 339.149 128.268C327.672 140.008 315.594 145.878 302.917 145.878C300.862 151.23 299.834 156.582 299.834 161.934C299.834 167.804 300.947 172.379 303.174 175.659C305.401 178.939 308.656 180.579 312.939 180.579C317.393 180.579 322.018 179.371 326.815 176.954C331.612 174.364 335.723 171.343 339.149 167.89C342.062 164.955 345.317 160.984 348.914 155.978C352.683 150.798 356.452 144.497 360.22 137.073C360.734 136.21 361.248 135.778 361.762 135.778C362.79 135.778 362.79 136.642 361.762 138.368C358.85 144.238 355.681 149.849 352.255 155.201C349 160.553 344.631 165.732 339.149 170.739C335.894 174.019 331.783 176.954 326.815 179.543C321.847 181.96 316.537 183.169 310.883 183.169ZM303.174 144.065C312.596 144.065 323.132 138.972 334.781 128.786V128.527C338.036 125.765 341.119 121.967 344.032 117.133C347.458 111.781 349.171 107.206 349.171 103.408C349.171 100.646 347.115 99.2645 343.004 99.2645C336.494 99.2645 328.614 105.134 319.363 116.874C315.08 122.053 311.654 126.887 309.085 131.376C306.515 135.865 304.545 140.095 303.174 144.065Z" fill="black"/>
<path d="M225.149 181.874C214.528 181.874 209.218 175.141 209.218 161.675C209.218 156.151 210.417 149.763 212.815 142.512C214.186 138.886 216.669 133.275 220.267 125.679C224.036 118.083 229.004 108.587 235.171 97.1931H235.685C237.055 98.0563 238.512 98.4879 240.053 98.4879C244.165 98.4879 248.533 96.7615 253.158 93.3086L253.415 93.8265C248.619 98.6605 240.396 112.04 228.747 133.966C221.894 147.259 218.468 159.344 218.468 170.221C218.468 176.609 220.524 179.803 224.635 179.803C235.085 179.803 247.163 168.495 260.867 145.878C258.983 142.598 258.041 137.505 258.041 130.599C258.041 128.528 258.126 126.456 258.298 124.384C258.64 122.14 258.983 119.896 259.326 117.651C259.84 113.68 261.124 109.451 263.18 104.962C265.75 98.9195 268.405 95.8982 271.146 95.8982C274.401 95.8982 276.028 98.7468 276.028 104.444C276.028 114.457 271.574 128.096 262.666 145.36C263.009 147.605 264.122 150.022 266.007 152.611C268.062 155.201 270.461 156.496 273.202 156.496C280.568 156.496 287.249 150.367 293.245 138.109C293.759 137.074 294.273 136.728 294.787 137.074C295.472 137.419 295.558 138.023 295.044 138.886C291.789 145.274 288.448 150.108 285.022 153.388C281.767 156.668 277.913 158.309 273.459 158.309C271.06 158.309 268.748 157.532 266.521 155.978C264.465 154.251 262.752 151.748 261.381 148.468C257.441 156.755 252.645 163.833 246.991 169.703C239.454 177.817 232.173 181.874 225.149 181.874Z" fill="black"/>
<path d="M205.265 82.1725C199.783 82.1725 197.042 79.4965 197.042 74.1446C197.042 68.2748 199.697 65.3398 205.008 65.3398C210.49 65.3398 213.231 68.0158 213.231 73.3677C213.231 79.2376 210.576 82.1725 205.265 82.1725ZM174.943 183.169C163.637 183.169 157.983 176.867 157.983 164.264C157.983 155.114 160.639 145.446 165.949 135.26L185.222 97.1924H185.993C186.506 97.883 187.534 98.2283 189.076 98.2283C192.331 98.2283 196.614 96.2429 201.924 92.2721L202.438 92.79L180.596 135.519C171.517 153.129 166.977 165.386 166.977 172.292C166.977 175.4 167.834 177.558 169.547 178.766C171.26 179.975 173.23 180.579 175.457 180.579C177.855 180.579 180.168 180.061 182.395 179.025C184.793 177.989 186.849 176.867 188.562 175.659C193.188 172.033 197.042 167.89 200.126 163.228C203.38 158.394 206.207 153.56 208.605 148.726C211.004 143.892 213.145 139.835 215.03 136.555C215.543 135.692 216.057 135.433 216.571 135.778C217.085 135.951 217.171 136.469 216.828 137.332C213.402 144.583 209.633 152.006 205.522 159.603C201.41 167.199 196.185 173.242 189.847 177.73C187.62 179.284 185.222 180.579 182.652 181.615C180.254 182.651 177.684 183.169 174.943 183.169Z" fill="black"/>
<path d="M24.1328 260.081C8.88623 260.081 1.26295 254.729 1.26295 244.025C1.26295 230.214 9.91409 217.093 27.2164 204.663C36.6384 198.102 46.4887 192.837 56.7673 188.866C67.0459 184.895 77.9241 182.392 89.4018 181.356L95.0551 170.22C88.7166 172.637 82.4638 174.537 76.2966 175.918C70.1295 177.126 64.048 177.73 58.0521 177.73C40.7499 177.73 26.8738 172.896 16.4239 163.228C5.97397 153.215 0.749023 139.49 0.749023 122.053C0.749023 95.2935 11.5415 71.0372 33.1266 49.2842C23.8758 41.688 19.2505 33.7464 19.2505 25.4595C19.2505 19.417 21.6488 13.8925 26.4455 8.88583C31.7561 3.01598 41.949 0.0810547 57.0243 0.0810547C66.4463 0.0810547 74.0696 1.72116 79.8941 5.00137C80.922 5.00137 81.4359 5.43298 81.4359 6.29619C81.4359 7.1594 80.7507 7.59101 79.3802 7.59101C78.181 7.59101 76.5536 7.24572 74.4979 6.55515C69.3586 4.48344 63.1914 3.44759 55.9964 3.44759C42.1203 3.44759 33.3835 6.20988 29.786 11.7344C26.7025 16.3958 25.1607 21.3161 25.1607 26.4954C25.1607 33.7464 28.5869 40.4795 35.4393 46.6946C60.4505 22.5246 90.1727 10.4396 124.606 10.4396C153.557 10.4396 168.033 17.3453 168.033 31.1568C168.033 33.7464 167.69 36.336 167.005 38.9257C165.635 43.0691 162.637 47.0399 158.011 50.838C143.964 62.5777 123.578 68.4476 96.8538 68.4476C76.6393 68.4476 59.1657 64.5631 44.433 56.7942C35.3536 67.1528 28.0729 78.9788 22.591 92.2723C16.0812 107.292 12.8264 120.845 12.8264 132.93C12.8264 159.517 27.9016 172.81 58.0521 172.81C71.9282 172.81 85.1191 170.307 97.6247 165.3C103.107 154.251 107.818 145.015 111.758 137.591C115.698 129.995 118.867 124.298 121.265 120.499C134.628 97.8832 145.078 86.5751 152.615 86.5751C158.611 86.5751 161.609 89.9416 161.609 96.6747C161.609 105.825 155.527 118.6 143.364 135.001C139.767 139.835 135.399 144.583 130.259 149.244C125.12 153.733 119.038 157.963 112.015 161.934L105.848 181.097C118.867 182.478 125.377 185.845 125.377 191.197C125.377 192.405 124.949 193.009 124.092 193.009C123.407 193.009 122.208 192.405 120.495 191.197C116.383 187.916 111.073 185.845 104.563 184.981C98.053 204.317 91.7145 218.215 85.5474 226.675C69.4443 248.946 48.9727 260.081 24.1328 260.081ZM97.1108 66.1169C101.565 66.1169 105.848 65.9443 109.959 65.599C114.242 65.081 118.268 64.3905 122.036 63.5273C130.944 61.8008 138.996 58.9522 146.191 54.9815C156.298 49.4569 161.695 43.4144 162.38 36.854C162.551 36.336 162.637 35.8181 162.637 35.3002C162.637 34.7823 162.637 34.2643 162.637 33.7464C162.637 20.4529 153.814 13.8061 136.169 13.8061C119.21 13.8061 102.85 17.4316 87.0892 24.6826C71.3287 31.761 57.7952 41.7743 46.4887 54.7225C60.1935 62.3188 77.0675 66.1169 97.1108 66.1169ZM113.557 157.013C118.696 153.56 123.578 149.762 128.204 145.619C132.829 141.475 137.112 136.9 141.052 131.894C150.988 119.809 155.956 108.76 155.956 98.7464C155.956 93.7397 154.5 91.2364 151.587 91.2364C150.902 91.2364 150.217 91.4091 149.532 91.7544C148.846 92.0996 148.075 92.5313 147.219 93.0492C135.57 101.163 124.349 122.485 113.557 157.013ZM22.591 256.197C36.981 256.197 52.6559 243.421 69.6156 217.87C71.5 214.935 73.8983 210.705 76.8106 205.181C79.8942 199.829 83.406 193.268 87.3461 185.499C65.2472 188.434 46.1461 195.858 30.043 207.77C14.2825 219.337 6.40225 230.559 6.40225 241.436C6.40225 246.097 7.94403 249.722 11.0276 252.312C14.1112 254.902 17.9657 256.197 22.591 256.197Z" fill="black"/>
</svg>
